<svg id="color" enable-background="new 0 0 24 24" height="512" viewBox="0 0 24 24" width="512" xmlns="http://www.w3.org/2000/svg"><path d="m10 0c-5.52 0-10 4.48-10 10s4.48 10 10 10c.15 0 .3 0 .45-.01.14-.21.319-.42.53-.63.159-.16.329-.31.51-.43l-2.59-2.59c-1.16-1.17-1.16-3.07.01-4.24 1.17-1.16 3.07-1.17 4.23 0l.811.8c.31-.15.63-.24.97-.27l.079-.09c.56-.57 1.31-.88 2.11-.88.21-.01.43.02.63.06.5-.35 1.09-.54 1.71-.54h.02c.15 0 .3.01.45.04.05-.4.08-.81.08-1.22 0-5.52-4.48-10-10-10zm3 10h-6c-.55 0-1-.45-1-1s.45-1 1-1h6c.55 0 1 .45 1 1s-.45 1-1 1zm0-4h-6c-.55 0-1-.45-1-1s.45-1 1-1h6c.55 0 1 .45 1 1s-.45 1-1 1z" fill="#2196f3"/><path d="m10 0c-5.52 0-10 4.48-10 10s4.48 10 10 10h.027v-2.533l-1.127-1.127c-1.16-1.17-1.16-3.07.01-4.24.326-.324.709-.558 1.117-.702v-1.398h-3.027c-.55 0-1-.45-1-1s.45-1 1-1h3.027v-2h-3.027c-.55 0-1-.45-1-1s.45-1 1-1h3.027v-4c-.009 0-.018 0-.027 0z" fill="#1d83d4"/><path d="m20.166 13.463 2.797 2.796.009.009c1.664 1.664 1.173 3.935-.505 5.613l-1.184 1.184c-1.197 1.178-2.932 1.301-5.625.032-1.592-.75-2.405-.728-2.925-.706-.36.015-.579.03-.819-.21-.214-.214-.23-.702.477-1.409 1.122-1.122 3.284-.487 3.284-.487l-5.359-5.36c-.387-.387-.384-1.015.008-1.406s1.02-.395 1.406-.008l2.796 2.796c-.205-.205-.302-.481-.281-.753.011-.234.105-.47.289-.653.392-.391 1.02-.395 1.406-.008l.467.466c-.205-.205-.303-.481-.282-.753.011-.234.106-.469.29-.653.392-.391 1.02-.395 1.406-.008l.932.932c-.205-.205-.302-.481-.281-.753.011-.234.105-.469.289-.653.39-.391 1.018-.395 1.405-.008z" fill="#ffcc80"/><g fill="#ffa726"><path d="m18.471 14.124 2.148 2.148c-.132.132-.338.133-.469.003l-1.398-1.398c-.205-.205-.302-.481-.281-.753z"/><path d="m16.124 14.606 2.615 2.614c-.133.132-.339.133-.469.003l-1.864-1.864c-.205-.205-.302-.481-.282-.753z"/><path d="m14.244 15.555 2.614 2.614c-.132.132-.338.133-.469.003l-1.864-1.864c-.205-.205-.301-.481-.281-.753z"/></g><path d="m11.034 13.223c-.256 0-.513.099-.71.296-.392.392-.395 1.02-.008 1.406l5.359 5.36s-.609-.179-1.349-.179c-.654 0-1.409.14-1.935.666-.707.707-.69 1.194-.477 1.409.182.182.351.217.579.217.073 0 .153-.004.24-.007.088-.004.183-.007.29-.007.526 0 1.311.09 2.635.713 1.305.615 2.384.903 3.286.903.961 0 1.721-.327 2.339-.935l.801-.8-7.451-7.451c-.035.027-.068.056-.1.087-.184.184-.278.419-.289.653l2.614 2.614c-.066.067-.152.1-.237.1-.084 0-.167-.032-.232-.097l-1.864-1.864c-.187-.187-.284-.434-.284-.683 0 .249.096.495.284.683l-2.796-2.796c-.191-.192-.443-.288-.695-.288z" fill="#deb26f"/><path d="m14.244 15.555c-.002.023-.003.047-.003.07 0 .249.096.495.284.683l1.864 1.864c.065.065.148.097.232.097.085 0 .17-.033.237-.1z" fill="#de9121"/></svg>