<svg id="Capa_1" enable-background="new 0 0 510.005 510.005" height="512" viewBox="0 0 510.005 510.005" width="512" xmlns="http://www.w3.org/2000/svg"><g><path d="m205.837 260.461c0 38.852 31.605 70.459 70.458 70.459l10-70.458-10-70.458c-38.85-.001-70.458 31.604-70.458 70.457z" fill="#ffda2d"/><path d="m276.294 190.003v140.917c.407-.087 27.438 1.701 49.798-20.66 12.758-12.758 20.66-30.373 20.66-49.799 0-19.425-7.902-37.04-20.66-49.798-12.757-12.759-30.373-20.66-49.798-20.66z" fill="#fdb504"/><path d="m235.837 260.461c0 22.309 18.146 40.459 40.458 40.459l10-40.458-10-40.458c-22.309-.001-40.458 18.146-40.458 40.457z" fill="#fdb504"/><path d="m276.294 220.003v80.917c.245-.052 15.729 1.002 28.595-11.863 7.326-7.326 11.863-17.441 11.863-28.596 0-11.154-4.537-21.269-11.863-28.595s-17.44-11.863-28.595-11.863z" fill="#f77e01"/><path d="m276.294 187.747c1.213-10.639 8.781-77.026 10-87.718-1.213-9.446-8.781-68.408-10-77.902-68.013-17.708-78.693-20.497-79.471-20.679-3.893-.911-7.908-1.372-11.958-1.372-10.731 0-21.806 3.247-31.476 9.898-136.621 94.07-126.79 87.187-130.361 89.403-.455.369-10.367 5.543-17.087 17.655-7.163 12.911-7.759 28.401-2.274 41.497 8.66 20.683 30.628 31.958 50.986 28.595 5.232-.864 4.234-.981 58.345-16.775l52.17-15.346c2.117 1.449-3.032-2.076 47.834 32.746h31.646 31.646z" fill="#ffccbd"/><path d="m435.003 165.003 10-45-10-75c-14.981 0-30.019 0-45 0-18.39 0-36.842-2.499-54.832-7.547-20.607-5.365-38.27-9.963-58.876-15.329v165.621l47.433 20.549z" fill="#ffbda9"/><path d="m211.249 171.129c-.189-.08-6.792-1.094-11.755-7.342-5.07-6.381-5.819-15.059-2.399-22.068 4.213-8.63 13.982-13.484 23.739-11.046 6.927 1.732 40.479 10.12 55.461 13.865l10-15.461-10-15.461c-13.946-3.487-34.25-8.563-48.185-12.046-31.853-7.963-63.107 16.017-63.107 49.272 0 23.68 16.067 43.993 39.127 49.432 8.338 2.13 63.883 16.323 72.165 18.439l10-15.482-10-15.482-32.442-8.289c-3.766-.964 12.796 3.267-32.604-8.331z" fill="#ffbda9"/><path d="m296.364 149.554c2.545-10.179 4.733-18.925 7.277-29.104-9.564-2.391-17.784-4.446-27.347-6.836v30.922c.197.05 16.059 4.015 20.07 5.018z" fill="#ffa68c"/><path d="m315.616 193.719c-2.076.692-4.227 1.106-6.395 1.237s-4.354-.019-6.498-.456l-13.214-3.376-13.215-3.377v30.964c10.641 2.719 20.045 5.106 19.892 5.07 4.789 1.026 9.678 1.403 14.521 1.141 4.865-.264 9.684-1.172 14.31-2.714l19.864-6.488c4.315-1.411-10.997 3.595 21.02-6.873 27.816-9.325 41.024-13.846 69.103-13.846l10-15-10-15c-15.783 0-27.897 1.337-39.408 3.788-13.943 2.969-20.395 5.448-79.98 24.93z" fill="#ffa68c"/><path d="m435.003.003h75v240c-20.194 0-63.236 0-75 0 0-6.771 0-233.233 0-240z" fill="#32bea6"/><path d="m75.003 345.003-10 65 10 55h45c18.39 0 36.842 2.499 54.832 7.547 11.294 2.94 90.288 23.507 101.46 26.415l10-98.395-10-67.43-83.042-29.387z" fill="#ffccbd"/><g fill="#ffbda9"><path d="m199.298 285.083c-4.865.264-9.684 1.172-14.31 2.714-11.165 3.642-35.747 11.681-40.884 13.36-27.671 9.286-41.016 13.846-69.103 13.846l-10 15 10 15c31.6 0 47.963-5.176 77.434-15 13.337-4.36 28.615-9.356 41.952-13.717 4.153-1.383 8.603-1.655 12.894-.781 7.402 1.892 61.704 15.767 69.013 17.634l10-15.482-10-15.482c-7.515-1.92-52.501-13.41-62.19-15.884 0 0-6.599-1.652-14.806-1.208z"/><path d="m213.641 360.451c-2.545 10.178-4.732 18.925-7.277 29.104 8.482 2.12 61.42 15.355 69.931 17.482l10-15.461-10-15.461c-9.841-2.461-52.818-13.205-62.654-15.664z"/><path d="m276.294 333.14v165.825c38.231 9.954 37.665 10.031 42.827 10.622 12.619 1.446 26.058-1.689 37.494-9.556 135.999-93.563 124.323-85.657 130.361-89.402.455-.369 10.367-5.543 17.087-17.655 7.163-12.911 7.759-28.401 2.273-41.497-8.878-21.203-32.884-34.315-57.162-27.165-12.627 3.714-91.794 27.001-104.339 30.691l-37.334-24.084z"/></g><path d="m305.876 309.734-14.791-3.779-14.79-3.779v30.964c3.023.772 23.962 6.12 22.622 5.777 17.148 3.981 21.75 25.971 8.09 36.636-5.08 3.967-11.577 5.345-17.835 3.782-.238-.06-12.042-3.011-12.877-3.219v30.922c4.365 1.032 7.154 1.978 11.769 2.551 22.041 2.739 42.615-9.258 51.828-28.136 8.213-16.836 6.707-38.038-5.807-53.846-6.901-8.719-16.684-15.155-28.209-17.873z" fill="#ffa68c"/><path d="m75.003 510.003c-20.194 0-63.236 0-75 0 0-6.771 0-233.232 0-240h75z" fill="#fe4a4a"/></g></svg>